<svg width="40" height="40" viewBox="0 0 24 32" fill="none" xmlns="http://www.w3.org/2000/svg">
<g clip-path="url(#clip0_12_132)">
<path d="M1.95745 31.5H7.5461C9.24823 31.5 10.156 29.4003 8.96454 28.1171L3.37589 21.9929C2.15603 20.6515 0 21.5263 0 23.3636L0 29.4878C0 30.596 0.879433 31.5 1.95745 31.5Z" fill="white"/>
<path d="M0 2.51223L0 8.63641C0 10.4445 2.15603 11.3485 3.37589 10.0071L8.96454 3.88288C10.1277 2.59972 9.24823 0.5 7.5461 0.5H1.95745C0.879433 0.5 0 1.40405 0 2.51223Z" fill="white"/>
<path d="M13.6453 14.6148L23.4609 3.88288C24.6241 2.59972 23.7446 0.5 22.0425 0.5L16.3971 0.5C15.8581 0.5 15.3475 0.733302 14.9787 1.14158L2.63824 14.6148C1.92902 15.4022 1.92902 16.5978 2.63824 17.3852L14.9787 30.8584C15.3475 31.2667 15.8581 31.5 16.3971 31.5L22.0425 31.5C23.7446 31.5 24.6524 29.4003 23.4609 28.1171L13.6453 17.3852C12.9361 16.5978 12.9361 15.4022 13.6453 14.6148Z" fill="white"/>
</g>
<defs>
<clipPath id="clip0_12_132">
<rect width="31" height="24" fill="white" transform="matrix(0 -1 1 0 0 31.5)"/>
</clipPath>
</defs>
</svg>